# xmcd
#
# Track frame offsets:
#	150
#	20192
#	48142
#	76092
#	100177
#	146877
#	170277
#
# Disc length: 2783 seconds
#
# Revision: 0
# Processed by: cddbd v1.5.2PL0 Copyright (c) Steve Scherf et al.
# Submitted via: audiograbber 1.83.01
#
DISCID=520add07
DTITLE=Loreena Mc Kennet - The book of secret
DYEAR=1997
DGENRE=
TTITLE0=Prologue      4:22
TTITLE1=The mummers dance  6:07
TTITLE2=Skellig  6:07
TTITLE3=Marco Polo  5:15
TTITLE4=The highway  10:19
TTITLE5=La verenissima 5:09
TTITLE6=Night ride across the Caucasus  8:30
EXTD=
EXTT0=
EXTT1=
EXTT2=
EXTT3=
EXTT4=
EXTT5=
EXTT6=
PLAYORDER=
